#!OML:ASF E:\Steps\Project 1\Capture day 1\Session 2\Subject.ASF
:FULLY-SPECIFIED
:DEGREES
211
root 15.5274 16.8283 18.8559 -167.366 -7.63256 168.362
lowerback -22.2708 -0.729882 -3.82125
upperback 2.80746 0.264201 -1.64592
thorax 15.87 -0.156302 0.366868
lowerneck -1.04833 5.33582 -0.446517
upperneck 16.2013 6.50937 -0.12093
head 5.0285 2.82755 0.307295
rclavicle 1.2424e-014 -1.43125e-014
rhumerus -39.1749 -9.78386 -73.2607
rradius 44.4424
rwrist -5.73434
rhand -3.84645 -56.4456
rfingers 7.12502
rthumb 21.9014 -85.226
lclavicle 1.2424e-014 -1.43125e-014
lhumerus -35.8472 7.7602 74.6167
lradius 25.9561
lwrist -4.38224
lhand -19.0305 -14.4164
lfingers 7.12502
lthumb 7.27574 15.4385
rfemur -14.2928 3.91741 11.51
rtibia 43.7957
rfoot -45.1514 -14.5382
rtoes -29.2819
lfemur -52.138 -0.507789 1.28142
ltibia 31.2179
lfoot 8.70457 15.666
ltoes -3.63448
212
root 15.4613 16.8048 18.7711 -167.702 -7.27055 168.273
lowerback -22.5341 -0.547551 -3.49659
upperback 2.87579 0.443847 -1.70492
thorax 16.1057 -0.0458323 0.173742
lowerneck -0.960003 5.41145 -0.446937
upperneck 16.4117 6.59661 -0.177941
head 5.08076 2.85385 0.293615
rclavicle 5.56597e-015 -3.26007e-014
rhumerus -39.2768 -9.52081 -73.1619
rradius 44.9522
rwrist -6.14051
rhand -4.0138 -58.04
rfingers 7.12502
rthumb 21.7407 -86.8391
lclavicle 5.56597e-015 -3.26007e-014
lhumerus -35.809 7.71319 74.4299
lradius 25.3591
lwrist -4.0209
lhand -18.9178 -14.6225
lfingers 7.12502
lthumb 7.3845 15.2286
rfemur -13.6137 4.22119 11.1546
rtibia 43.8196
rfoot -45.4842 -14.5561
rtoes -29.947
lfemur -51.1197 -0.827199 1.98869
ltibia 29.5028
lfoot 8.88358 16.3624
ltoes -3.7453
213
root 15.4049 16.7744 18.7035 -168.159 -7.38901 168.483
lowerback -22.2445 -0.537853 -2.95604
upperback 2.88757 0.288824 -1.62565
thorax 15.9503 -0.0645819 -0.095084
lowerneck -0.920633 5.47793 -0.556413
upperneck 16.6024 6.6797 -0.224128
head 5.13103 2.87293 0.301727
rclavicle 1.26228e-014 -2.62396e-014
rhumerus -39.3399 -9.24353 -73.0526
rradius 45.3069
rwrist -6.38945
rhand -4.63316 -55.3769
rfingers 7.12502
rthumb 21.1458 -84.2437
lclavicle 1.26228e-014 -2.62396e-014
lhumerus -36.1446 8.01365 74.1061
lradius 25.2544
lwrist -4.1195
lhand -18.6697 -14.5754
lfingers 7.12502
lthumb 7.62398 15.2672
rfemur -12.7591 4.1785 11.2996
rtibia 43.888
rfoot -45.7391 -14.6211
rtoes -30.7816
lfemur -50.4619 -1.12132 2.83334
ltibia 28.2354
lfoot 9.34415 16.5422
ltoes -4.48387
214
root 15.3508 16.7386 18.639 -168.31 -7.35045 168.74
lowerback -22.2428 -0.489197 -2.47498
upperback 2.82207 0.207487 -1.52595
thorax 15.8702 -0.0602275 -0.281563
lowerneck -0.888608 5.49734 -0.459164
upperneck 16.7775 6.71457 -0.456457
head 5.19179 2.86983 0.217191
rclavicle 5.06901e-015 -4.53229e-014
rhumerus -39.3032 -8.97924 -72.9854
rradius 45.4996
rwrist -6.40534
rhand -3.58133 -56.458
rfingers 7.12502
rthumb 22.1559 -85.2084
lclavicle 5.06901e-015 -4.53229e-014
lhumerus -36.5072 8.33287 73.7676
lradius 25.1956
lwrist -4.43061
lhand -18.6488 -14.566
lfingers 7.12502
lthumb 7.64416 15.2759
rfemur -12.4151 4.21909 11.4907
rtibia 44.1778
rfoot -46.0012 -14.8393
rtoes -32.08
lfemur -50.1149 -1.00107 3.69059
ltibia 27.1151
lfoot 9.90274 16.5108
ltoes -6.28178
215
root 15.2874 16.7149 18.567 -168.435 -7.09334 168.76
lowerback -22.3709 -0.379356 -2.21422
upperback 2.72455 0.275502 -1.479
thorax 15.827 -0.00901648 -0.351809
lowerneck -0.801813 5.51301 -0.344322
upperneck 16.9226 6.73805 -0.654182
head 5.2335 2.86512 0.13782
rclavicle -1.66979e-014 3.26007e-014
rhumerus -39.3197 -8.63197 -72.8485
rradius 45.6498
rwrist -6.45097
rhand -2.78231 -58.5899
rfingers 7.12502
rthumb 22.9229 -87.2472
lclavicle -1.66979e-014 3.26007e-014
lhumerus -36.9165 8.62796 73.4548
lradius 24.9932
lwrist -4.44036
lhand -18.6052 -14.9211
lfingers 7.12502
lthumb 7.68623 14.9192
rfemur -12.0884 4.33352 11.2666
rtibia 44.3617
rfoot -46.2764 -14.9029
rtoes -32.8819
lfemur -49.5469 -1.18833 4.43586
ltibia 25.8143
lfoot 10.2489 16.9526
ltoes -8.39676
216
root 15.2255 16.6864 18.4901 -168.919 -7.3769 168.91
lowerback -22.1885 -0.465027 -1.81991
upperback 2.7685 0.0403323 -1.38478
thorax 15.7726 -0.0806003 -0.549571
lowerneck -0.732343 5.65551 -0.456218
upperneck 16.7796 6.94338 -0.626806
head 5.17311 2.96704 0.170189
rclavicle 6.26172e-015 1.19271e-014
rhumerus -39.3286 -8.17073 -72.7916
rradius 45.9745
rwrist -6.71527
rhand -2.10804 -60.4662
rfingers 7.12502
rthumb 23.5698 -89.0419
lclavicle 6.26172e-015 1.19271e-014
lhumerus -37.32 8.93764 73.083
lradius 24.8609
lwrist -4.1604
lhand -18.5932 -15.2134
lfingers 7.12502
lthumb 7.69776 14.6264
rfemur -10.9713 4.13685 11.3185
rtibia 44.053
rfoot -46.4012 -14.9058
rtoes -33.1651
lfemur -48.9414 -1.8482 5.28729
ltibia 24.7131
lfoot 10.2971 17.4762
ltoes -7.21434
217
root 15.1729 16.6613 18.3996 -170.247 -8.39718 169.357
lowerback -21.3518 -0.778549 -1.17939
upperback 3.2015 -0.565894 -1.23758
thorax 15.7914 -0.293324 -0.950356
lowerneck -0.895936 5.77113 -0.731699
upperneck 16.4935 7.1234 -0.401861
head 5.09368 3.07225 0.293519
rclavicle 3.97569e-015 -4.77083e-015
rhumerus -39.2019 -7.86922 -72.9089
rradius 46.4898
rwrist -6.84999
rhand -3.48346 -58.5067
rfingers 7.12502
rthumb 22.2499 -87.2459
lclavicle 3.97569e-015 -4.77083e-015
lhumerus -37.4538 9.2471 72.6106
lradius 24.7318
lwrist -4.10023
lhand -18.6266 -15.1363
lfingers 7.12502
lthumb 7.66561 14.7047
rfemur -8.54408 3.63241 12.0013
rtibia 43.4842
rfoot -46.5082 -15.1315
rtoes -33.5775
lfemur -47.8333 -2.91356 6.11051
ltibia 23.6327
lfoot 10.8081 17.3705
ltoes -6.07943
218
root 15.1088 16.6285 18.3314 -170.581 -8.27838 169.559
lowerback -21.104 -0.609288 -0.890389
upperback 3.00684 -0.442599 -1.1089
thorax 15.4055 -0.221141 -0.916848
lowerneck -0.505447 5.6132 -0.520797
upperneck 16.9532 6.8436 -0.54805
head 5.18326 2.90326 0.194841
rclavicle 1.30204e-014 1.11319e-014
rhumerus -39.9972 -7.59597 -72.5947
rradius 47.2556
rwrist -6.91078
rhand -2.92777 -60.2961
rfingers 7.12502
rthumb 22.7833 -88.9706
lclavicle 1.30204e-014 1.11319e-014
lhumerus -38.1166 9.07775 72.4231
lradius 24.6402
lwrist -4.2579
lhand -18.3837 -14.853
lfingers 7.12502
lthumb 7.89997 14.9794
rfemur -7.97143 3.61089 12.0081
rtibia 43.7028
rfoot -46.6201 -15.1991
rtoes -34.7122
lfemur -47.2864 -2.94169 6.7745
ltibia 22.6595
lfoot 11.2457 17.6682
ltoes -6.88853
219
root 15.0413 16.5974 18.258 -170.887 -8.09426 169.716
lowerback -20.973 -0.49059 -0.441837
upperback 2.97425 -0.408695 -1.06783
thorax 15.2845 -0.168224 -1.11177
lowerneck -0.410406 5.49844 -0.384646
upperneck 17.0354 6.69269 -0.766984
head 5.20506 2.81526 0.0964288
rclavicle 7.85199e-015 -2.06736e-014
rhumerus -40.1334 -7.15136 -72.5681
rradius 47.7022
rwrist -7.04399
rhand -2.93863 -60.6743
rfingers 7.12502
rthumb 22.7729 -89.3501
lclavicle 7.85199e-015 -2.06736e-014
lhumerus -38.5405 9.22127 72.0855
lradius 24.5693
lwrist -4.34971
lhand -18.0956 -14.7512
lfingers 7.12502
lthumb 8.17809 15.0705
rfemur -7.34398 3.74612 11.9622
rtibia 43.6661
rfoot -46.5635 -15.5932
rtoes -36.5194
lfemur -46.7419 -3.10072 7.46613
ltibia 21.8001
lfoot 11.4282 18.1237
ltoes -8.03353
220
root 14.9549 16.5688 18.1894 -170.65 -7.02816 169.513
lowerback -21.3703 -0.078516 -0.0254907
upperback 2.87123 0.0497162 -1.2162
thorax 15.4061 0.0818192 -1.36952
lowerneck -0.447144 5.46089 -0.362333
upperneck 17.0602 6.65661 -0.884538
head 5.22376 2.78985 0.0562258
rclavicle -5.1684e-015 0
rhumerus -39.985 -6.86477 -72.5059
rradius 47.8965
rwrist -7.10437
rhand -1.53654 -61.2437
rfingers 7.12502
rthumb 24.1178 -89.7477
lclavicle -5.1684e-015 0
lhumerus -38.8041 9.57334 71.6688
lradius 24.3991
lwrist -4.60716
lhand -18.0858 -14.933
lfingers 7.12502
lthumb 8.18755 14.8884
rfemur -7.82858 4.27784 11.1752
rtibia 44.2155
rfoot -46.6001 -15.3998
rtoes -37.9522
lfemur -46.1981 -2.78456 7.9182
ltibia 20.8142
lfoot 10.973 19.2917
ltoes -5.88855
221
root 14.8899 16.5392 18.1151 -171.459 -7.60874 170.008
lowerback -20.78 -0.211815 0.553128
upperback 3.04153 -0.303682 -0.983695
thorax 15.2464 -0.0352761 -1.54671
lowerneck -0.483997 5.55301 -0.434575
upperneck 17.1655 6.78872 -0.93413
head 5.2626 2.84139 0.0608546
rclavicle 1.35174e-014 -2.22639e-014
rhumerus -39.9077 -6.72417 -72.3438
rradius 48.2168
rwrist -7.04536
rhand -1.45766 -61.4112
rfingers 7.12502
rthumb 24.1935 -89.9052
lclavicle 1.35174e-014 -2.22639e-014
lhumerus -38.9536 9.96853 71.3183
lradius 24.0735
lwrist -4.68168
lhand -18.0842 -14.7201
lfingers 7.12502
lthumb 8.18909 15.1012
rfemur -6.38313 3.95513 11.6815
rtibia 44.0835
rfoot -46.9985 -15.0469
rtoes -37.1989
lfemur -45.5815 -3.06073 8.55096
ltibia 20.0388
lfoot 11.4967 19.1739
ltoes -6.00428
222
root 14.8096 16.5045 18.0554 -171.127 -6.88005 169.92
lowerback -21.077 0.0250101 0.886458
upperback 2.86726 -0.0783413 -1.00755
thorax 15.2223 0.0937327 -1.69129
lowerneck -0.44262 5.73319 -0.621134
upperneck 17.1407 7.04665 -0.948934
head 5.24293 2.95509 0.0967258
rclavicle 8.84592e-015 -5.725e-014
rhumerus -39.7812 -6.35114 -72.2722
rradius 48.5753
rwrist -7.10376
rhand -3.87781 -56.1452
rfingers 7.12502
rthumb 21.8713 -84.9291
lclavicle 8.84592e-015 -5.725e-014
lhumerus -39.1447 10.4288 70.945
lradius 23.703
lwrist -4.64436
lhand -18.0939 -14.3746
lfingers 7.12502
lthumb 8.17973 15.4471
rfemur -6.91759 4.12161 11.0545
rtibia 44.6689
rfoot -47.3259 -14.3861
rtoes -36.7856
lfemur -45.3646 -2.53092 8.93501
ltibia 19.189
lfoot 11.4036 20.0435
ltoes -5.66726
223
root 14.7364 16.4888 17.954 -172.312 -7.24813 170.162
lowerback -20.4145 -0.102078 1.31695
upperback 3.19128 -0.359534 -0.895135
thorax 15.202 0.00506881 -1.89695
lowerneck -0.36512 5.76951 -0.557321
upperneck 17.1584 7.10553 -1.10106
head 5.24381 2.97451 0.0400479
rclavicle -1.18277e-014 1.59028e-014
rhumerus -39.7 -5.85554 -72.2865
rradius 48.9223
rwrist -7.26462
rhand 1.78701 -65.1302
rfingers 7.12502
rthumb 27.3009 93.1736
lclavicle -1.18277e-014 1.59028e-014
lhumerus -39.4676 10.6844 70.5516
lradius 23.5039
lwrist -4.59987
lhand -18.32 -14.3961
lfingers 7.12502
lthumb 7.96149 15.4339
rfemur -4.81084 3.96062 11.2363
rtibia 44.1855
rfoot -47.4071 -14.4658
rtoes -37.0921
lfemur -44.016 -3.44595 9.40403
ltibia 18.2182
lfoot 11.4935 20.5121
ltoes -4.82008
224
root 14.6587 16.4539 17.8705 -172.715 -7.50782 170.357
lowerback -20.268 -0.167426 1.69977
upperback 3.26795 -0.55503 -0.800712
thorax 15.1954 -0.0531545 -2.07051
lowerneck -0.288327 5.73416 -0.39068
upperneck 17.1762 7.07645 -1.36519
head 5.25233 2.94987 -0.0717183
rclavicle -2.62396e-014 -5.24792e-014
rhumerus -39.6544 -5.39402 -72.3005
rradius 49.4732
rwrist -7.35105
rhand -4.41299 -57.1104
rfingers 7.12502
rthumb 21.3573 -85.9534
lclavicle -2.62396e-014 -5.24792e-014
lhumerus -39.7747 11.0534 70.0917
lradius 23.3234
lwrist -4.70361
lhand -18.2866 -14.577
lfingers 7.12502
lthumb 7.99374 15.2518
rfemur -3.77885 3.70185 11.2298
rtibia 43.8868
rfoot -47.195 -14.6962
rtoes -38.4959
lfemur -43.6953 -3.60101 9.74788
ltibia 17.7801
lfoot 11.5412 20.9106
ltoes -2.6134
